<?xml version="1.0" encoding="UTF-8" standalone="no"?>
<!DOCTYPE svg PUBLIC "-//W3C//DTD SVG 1.1//EN"
 "http://www.w3.org/Graphics/SVG/1.1/DTD/svg11.dtd">
<!-- Generated by graphviz version 2.40.1 (20161225.0304)
 -->
<!-- Title: statemach Pages: 1 -->
<svg width="697pt" height="653pt"
 viewBox="0.00 0.00 697.40 653.00" xmlns="http://www.w3.org/2000/svg" xmlns:xlink="http://www.w3.org/1999/xlink">
<g id="graph0" class="graph" transform="scale(1 1) rotate(0) translate(4 649)">
<title>statemach</title>
<polygon fill="#ffffff" stroke="transparent" points="-4,4 -4,-649 693.3968,-649 693.3968,4 -4,4"/>
<!-- Start -->
<g id="node1" class="node">
<title>Start</title>
<ellipse fill="none" stroke="#000000" cx="397" cy="-627" rx="34.394" ry="18"/>
<text text-anchor="middle" x="397" y="-623.3" font-family="Times,serif" font-size="14.00" fill="#000000">Start</text>
</g>
<!-- Px1 -->
<g id="node2" class="node">
<title>Px1</title>
<ellipse fill="none" stroke="#000000" cx="172" cy="-540" rx="28.6953" ry="18"/>
<text text-anchor="middle" x="172" y="-536.3" font-family="Times,serif" font-size="14.00" fill="#000000">Px1</text>
</g>
<!-- Start&#45;&gt;Px1 -->
<g id="edge1" class="edge">
<title>Start&#45;&gt;Px1</title>
<path fill="none" stroke="#000000" d="M365.6857,-619.2233C340.9686,-612.7187 305.8037,-602.6474 276,-591 250.7757,-581.1423 223.3094,-567.5423 202.9406,-556.8654"/>
<polygon fill="#000000" stroke="#000000" points="204.309,-553.6295 193.8342,-552.0391 201.031,-559.8146 204.309,-553.6295"/>
<text text-anchor="middle" x="285" y="-579.8" font-family="Times,serif" font-size="14.00" fill="#000000">&#39;P&#39;</text>
</g>
<!-- Size1 -->
<g id="node3" class="node">
<title>Size1</title>
<ellipse fill="none" stroke="#000000" cx="647" cy="-540" rx="36.2938" ry="18"/>
<text text-anchor="middle" x="647" y="-536.3" font-family="Times,serif" font-size="14.00" fill="#000000">Size1</text>
</g>
<!-- Start&#45;&gt;Size1 -->
<g id="edge2" class="edge">
<title>Start&#45;&gt;Size1</title>
<path fill="none" stroke="#000000" d="M430.8421,-622.9922C478.6957,-616.9424 563.3897,-604.7171 591,-591 604.1382,-584.4728 616.4606,-573.949 626.183,-564.1516"/>
<polygon fill="#000000" stroke="#000000" points="628.7387,-566.5431 633.0815,-556.8792 623.6601,-561.7256 628.7387,-566.5431"/>
<text text-anchor="middle" x="622" y="-579.8" font-family="Times,serif" font-size="14.00" fill="#000000">&#39;S&#39;</text>
</g>
<!-- Help1 -->
<g id="node4" class="node">
<title>Help1</title>
<ellipse fill="none" stroke="#000000" cx="276" cy="-540" rx="38.9931" ry="18"/>
<text text-anchor="middle" x="276" y="-536.3" font-family="Times,serif" font-size="14.00" fill="#000000">Help1</text>
</g>
<!-- Start&#45;&gt;Help1 -->
<g id="edge3" class="edge">
<title>Start&#45;&gt;Help1</title>
<path fill="none" stroke="#000000" d="M366.4785,-618.6545C349.2214,-612.8727 327.9714,-603.8727 312,-591 303.7332,-584.3371 296.5213,-575.3048 290.7677,-566.6924"/>
<polygon fill="#000000" stroke="#000000" points="293.59,-564.6046 285.3166,-557.9862 287.657,-568.3194 293.59,-564.6046"/>
<text text-anchor="middle" x="322.5" y="-579.8" font-family="Times,serif" font-size="14.00" fill="#000000">&#39;H&#39;</text>
</g>
<!-- Px2 -->
<g id="node5" class="node">
<title>Px2</title>
<ellipse fill="none" stroke="#000000" cx="158" cy="-453" rx="28.6953" ry="18"/>
<text text-anchor="middle" x="158" y="-449.3" font-family="Times,serif" font-size="14.00" fill="#000000">Px2</text>
</g>
<!-- Px1&#45;&gt;Px2 -->
<g id="edge4" class="edge">
<title>Px1&#45;&gt;Px2</title>
<path fill="none" stroke="#000000" d="M169.0992,-521.9735C167.2033,-510.1918 164.6879,-494.5607 162.5312,-481.1581"/>
<polygon fill="#000000" stroke="#000000" points="165.9415,-480.3203 160.8971,-471.0034 159.0304,-481.4324 165.9415,-480.3203"/>
<text text-anchor="middle" x="175.5" y="-492.8" font-family="Times,serif" font-size="14.00" fill="#000000">&#39;X&#39;</text>
</g>
<!-- Size2 -->
<g id="node14" class="node">
<title>Size2</title>
<ellipse fill="none" stroke="#000000" cx="653" cy="-453" rx="36.2938" ry="18"/>
<text text-anchor="middle" x="653" y="-449.3" font-family="Times,serif" font-size="14.00" fill="#000000">Size2</text>
</g>
<!-- Size1&#45;&gt;Size2 -->
<g id="edge16" class="edge">
<title>Size1&#45;&gt;Size2</title>
<path fill="none" stroke="#000000" d="M648.2432,-521.9735C649.0557,-510.1918 650.1337,-494.5607 651.0581,-481.1581"/>
<polygon fill="#000000" stroke="#000000" points="654.562,-481.2205 651.7584,-471.0034 647.5786,-480.7388 654.562,-481.2205"/>
<text text-anchor="middle" x="657" y="-492.8" font-family="Times,serif" font-size="14.00" fill="#000000">&#39;I&#39;</text>
</g>
<!-- Help2 -->
<g id="node10" class="node">
<title>Help2</title>
<ellipse fill="none" stroke="#000000" cx="272" cy="-453" rx="38.9931" ry="18"/>
<text text-anchor="middle" x="272" y="-449.3" font-family="Times,serif" font-size="14.00" fill="#000000">Help2</text>
</g>
<!-- Help1&#45;&gt;Help2 -->
<g id="edge10" class="edge">
<title>Help1&#45;&gt;Help2</title>
<path fill="none" stroke="#000000" d="M275.1712,-521.9735C274.6295,-510.1918 273.9108,-494.5607 273.2946,-481.1581"/>
<polygon fill="#000000" stroke="#000000" points="276.7834,-480.832 272.8277,-471.0034 269.7908,-481.1536 276.7834,-480.832"/>
<text text-anchor="middle" x="284.5" y="-492.8" font-family="Times,serif" font-size="14.00" fill="#000000">&#39;E&#39;</text>
</g>
<!-- Px3 -->
<g id="node6" class="node">
<title>Px3</title>
<ellipse fill="none" stroke="#000000" cx="130" cy="-366" rx="28.6953" ry="18"/>
<text text-anchor="middle" x="130" y="-362.3" font-family="Times,serif" font-size="14.00" fill="#000000">Px3</text>
</g>
<!-- Px2&#45;&gt;Px3 -->
<g id="edge5" class="edge">
<title>Px2&#45;&gt;Px3</title>
<path fill="none" stroke="#000000" d="M152.1984,-434.9735C148.3435,-422.9958 143.2081,-407.0396 138.8477,-393.4912"/>
<polygon fill="#000000" stroke="#000000" points="142.0938,-392.1525 135.6984,-383.7057 135.4304,-394.2971 142.0938,-392.1525"/>
<text text-anchor="middle" x="152.5" y="-405.8" font-family="Times,serif" font-size="14.00" fill="#000000">&#39; &#39;</text>
</g>
<!-- Px3&#45;&gt;Px3 -->
<g id="edge22" class="edge">
<title>Px3&#45;&gt;Px3</title>
<path fill="none" stroke="#ff0000" d="M155.876,-373.7808C167.0394,-374.4178 176.5975,-371.8242 176.5975,-366 176.5975,-362.0869 172.2828,-359.6321 166.0655,-358.6356"/>
<polygon fill="#ff0000" stroke="#ff0000" points="166.0106,-355.1305 155.876,-358.2192 165.7247,-362.1247 166.0106,-355.1305"/>
<text text-anchor="middle" x="198.0975" y="-362.3" font-family="Times,serif" font-size="14.00" fill="#000000">&#39;0&#39;..&#39;9&#39;</text>
</g>
<!-- Px4 -->
<g id="node18" class="node">
<title>Px4</title>
<ellipse fill="none" stroke="#000000" cx="120" cy="-279" rx="28.6953" ry="18"/>
<text text-anchor="middle" x="120" y="-275.3" font-family="Times,serif" font-size="14.00" fill="#000000">Px4</text>
</g>
<!-- Px3&#45;&gt;Px4 -->
<g id="edge23" class="edge">
<title>Px3&#45;&gt;Px4</title>
<path fill="none" stroke="#000000" d="M127.928,-347.9735C126.5738,-336.1918 124.7771,-320.5607 123.2366,-307.1581"/>
<polygon fill="#000000" stroke="#000000" points="126.6885,-306.5383 122.0694,-297.0034 119.7342,-307.3376 126.6885,-306.5383"/>
<text text-anchor="middle" x="132.5" y="-318.8" font-family="Times,serif" font-size="14.00" fill="#000000">&#39; &#39;</text>
</g>
<!-- Px6 -->
<g id="node7" class="node">
<title>Px6</title>
<ellipse fill="none" stroke="#000000" cx="391" cy="-105" rx="28.6953" ry="18"/>
<text text-anchor="middle" x="391" y="-101.3" font-family="Times,serif" font-size="14.00" fill="#000000">Px6</text>
</g>
<!-- Px6&#45;&gt;Start -->
<g id="edge6" class="edge">
<title>Px6&#45;&gt;Start</title>
<path fill="none" stroke="#ff0000" d="M403.0992,-121.3168C412.301,-134.7176 424.3168,-154.5872 430,-174 459.4523,-274.6034 443,-304.674 443,-409.5 443,-540 443,-540 443,-540 443,-563.1335 430.1322,-586.1333 418.0081,-602.6697"/>
<polygon fill="#ff0000" stroke="#ff0000" points="415.1523,-600.6413 411.8079,-610.6944 420.6916,-604.9211 415.1523,-600.6413"/>
<text text-anchor="middle" x="455" y="-362.3" font-family="Times,serif" font-size="14.00" fill="#000000">&#39;\n&#39;</text>
</g>
<!-- Px7 -->
<g id="node8" class="node">
<title>Px7</title>
<ellipse fill="none" stroke="#000000" cx="57" cy="-105" rx="28.6953" ry="18"/>
<text text-anchor="middle" x="57" y="-101.3" font-family="Times,serif" font-size="14.00" fill="#000000">Px7</text>
</g>
<!-- Px7&#45;&gt;Start -->
<g id="edge8" class="edge">
<title>Px7&#45;&gt;Start</title>
<path fill="none" stroke="#ff0000" d="M39.8981,-119.4497C23.1084,-135.3441 0,-162.5667 0,-192 0,-540 0,-540 0,-540 0,-587.1405 48.1028,-576.6312 93,-591 140.2196,-606.1121 280.0833,-618.3183 352.4709,-623.8274"/>
<polygon fill="#ff0000" stroke="#ff0000" points="352.4084,-627.3324 362.6424,-624.5911 352.9326,-620.3521 352.4084,-627.3324"/>
<text text-anchor="middle" x="11" y="-362.3" font-family="Times,serif" font-size="14.00" fill="#000000">&#39;\n&#39;</text>
</g>
<!-- Px8 -->
<g id="node9" class="node">
<title>Px8</title>
<ellipse fill="none" stroke="#000000" cx="278" cy="-18" rx="28.6953" ry="18"/>
<text text-anchor="middle" x="278" y="-14.3" font-family="Times,serif" font-size="14.00" fill="#000000">Px8</text>
</g>
<!-- Px7&#45;&gt;Px8 -->
<g id="edge7" class="edge">
<title>Px7&#45;&gt;Px8</title>
<path fill="none" stroke="#000000" d="M81.4953,-95.3571C121.0936,-79.7686 199.2546,-48.9993 244.1479,-31.3264"/>
<polygon fill="#000000" stroke="#000000" points="245.709,-34.4734 253.7318,-27.5535 243.1448,-27.9599 245.709,-34.4734"/>
<text text-anchor="middle" x="190.5" y="-57.8" font-family="Times,serif" font-size="14.00" fill="#000000">&#39;\r&#39;</text>
</g>
<!-- Px8&#45;&gt;Start -->
<g id="edge9" class="edge">
<title>Px8&#45;&gt;Start</title>
<path fill="none" stroke="#ff0000" d="M305.6673,-23.1471C363.7354,-34.7401 493,-65.0354 493,-105 493,-540 493,-540 493,-540 493,-573.299 460.8946,-597.1799 433.8169,-611.3994"/>
<polygon fill="#ff0000" stroke="#ff0000" points="431.9066,-608.4404 424.5097,-616.0257 435.0224,-614.7087 431.9066,-608.4404"/>
<text text-anchor="middle" x="504" y="-318.8" font-family="Times,serif" font-size="14.00" fill="#000000">&#39;\n&#39;</text>
</g>
<!-- Help3 -->
<g id="node11" class="node">
<title>Help3</title>
<ellipse fill="none" stroke="#000000" cx="279" cy="-366" rx="38.9931" ry="18"/>
<text text-anchor="middle" x="279" y="-362.3" font-family="Times,serif" font-size="14.00" fill="#000000">Help3</text>
</g>
<!-- Help2&#45;&gt;Help3 -->
<g id="edge11" class="edge">
<title>Help2&#45;&gt;Help3</title>
<path fill="none" stroke="#000000" d="M273.4504,-434.9735C274.3984,-423.1918 275.656,-407.5607 276.7344,-394.1581"/>
<polygon fill="#000000" stroke="#000000" points="280.2381,-394.2519 277.5515,-384.0034 273.2606,-393.6904 280.2381,-394.2519"/>
<text text-anchor="middle" x="285" y="-405.8" font-family="Times,serif" font-size="14.00" fill="#000000">&#39;L&#39;</text>
</g>
<!-- Help4 -->
<g id="node12" class="node">
<title>Help4</title>
<ellipse fill="none" stroke="#000000" cx="330" cy="-279" rx="38.9931" ry="18"/>
<text text-anchor="middle" x="330" y="-275.3" font-family="Times,serif" font-size="14.00" fill="#000000">Help4</text>
</g>
<!-- Help3&#45;&gt;Help4 -->
<g id="edge12" class="edge">
<title>Help3&#45;&gt;Help4</title>
<path fill="none" stroke="#000000" d="M289.3206,-348.3943C296.579,-336.0124 306.4171,-319.2297 314.6001,-305.2704"/>
<polygon fill="#000000" stroke="#000000" points="317.6569,-306.9766 319.6947,-296.5796 311.618,-303.4365 317.6569,-306.9766"/>
<text text-anchor="middle" x="317" y="-318.8" font-family="Times,serif" font-size="14.00" fill="#000000">&#39;P&#39;</text>
</g>
<!-- Help4&#45;&gt;Start -->
<g id="edge13" class="edge">
<title>Help4&#45;&gt;Start</title>
<path fill="none" stroke="#ff0000" d="M335.6608,-297.1294C340.6061,-314.5903 347,-341.838 347,-366 347,-540 347,-540 347,-540 347,-563.5876 360.9868,-586.5612 374.1651,-602.972"/>
<polygon fill="#ff0000" stroke="#ff0000" points="371.7689,-605.5582 380.9045,-610.9241 377.1091,-601.0324 371.7689,-605.5582"/>
<text text-anchor="middle" x="358" y="-449.3" font-family="Times,serif" font-size="14.00" fill="#000000">&#39;\n&#39;</text>
</g>
<!-- Help5 -->
<g id="node13" class="node">
<title>Help5</title>
<ellipse fill="none" stroke="#000000" cx="382" cy="-192" rx="38.9931" ry="18"/>
<text text-anchor="middle" x="382" y="-188.3" font-family="Times,serif" font-size="14.00" fill="#000000">Help5</text>
</g>
<!-- Help4&#45;&gt;Help5 -->
<g id="edge14" class="edge">
<title>Help4&#45;&gt;Help5</title>
<path fill="none" stroke="#000000" d="M340.523,-261.3943C347.9236,-249.0124 357.9547,-232.2297 366.2981,-218.2704"/>
<polygon fill="#000000" stroke="#000000" points="369.3665,-219.9589 371.4927,-209.5796 363.3579,-216.3675 369.3665,-219.9589"/>
<text text-anchor="middle" x="368.5" y="-231.8" font-family="Times,serif" font-size="14.00" fill="#000000">&#39;\r&#39;</text>
</g>
<!-- Help5&#45;&gt;Start -->
<g id="edge15" class="edge">
<title>Help5&#45;&gt;Start</title>
<path fill="none" stroke="#ff0000" d="M386.9948,-210.1736C391.3583,-227.6665 397,-254.9366 397,-279 397,-540 397,-540 397,-540 397,-559.4525 397,-581.3516 397,-598.3123"/>
<polygon fill="#ff0000" stroke="#ff0000" points="393.5001,-598.6694 397,-608.6694 400.5001,-598.6695 393.5001,-598.6694"/>
<text text-anchor="middle" x="408" y="-405.8" font-family="Times,serif" font-size="14.00" fill="#000000">&#39;\n&#39;</text>
</g>
<!-- Size3 -->
<g id="node15" class="node">
<title>Size3</title>
<ellipse fill="none" stroke="#000000" cx="647" cy="-366" rx="36.2938" ry="18"/>
<text text-anchor="middle" x="647" y="-362.3" font-family="Times,serif" font-size="14.00" fill="#000000">Size3</text>
</g>
<!-- Size2&#45;&gt;Size3 -->
<g id="edge17" class="edge">
<title>Size2&#45;&gt;Size3</title>
<path fill="none" stroke="#000000" d="M651.7568,-434.9735C650.9443,-423.1918 649.8663,-407.5607 648.9419,-394.1581"/>
<polygon fill="#000000" stroke="#000000" points="652.4214,-393.7388 648.2416,-384.0034 645.438,-394.2205 652.4214,-393.7388"/>
<text text-anchor="middle" x="659" y="-405.8" font-family="Times,serif" font-size="14.00" fill="#000000">&#39;Z&#39;</text>
</g>
<!-- Size4 -->
<g id="node16" class="node">
<title>Size4</title>
<ellipse fill="none" stroke="#000000" cx="595" cy="-279" rx="36.2938" ry="18"/>
<text text-anchor="middle" x="595" y="-275.3" font-family="Times,serif" font-size="14.00" fill="#000000">Size4</text>
</g>
<!-- Size3&#45;&gt;Size4 -->
<g id="edge18" class="edge">
<title>Size3&#45;&gt;Size4</title>
<path fill="none" stroke="#000000" d="M636.477,-348.3943C629.0277,-335.9309 618.9132,-319.0087 610.5374,-304.9953"/>
<polygon fill="#000000" stroke="#000000" points="613.4646,-303.0706 605.3299,-296.2827 607.4561,-306.662 613.4646,-303.0706"/>
<text text-anchor="middle" x="633.5" y="-318.8" font-family="Times,serif" font-size="14.00" fill="#000000">&#39;E&#39;</text>
</g>
<!-- Size4&#45;&gt;Start -->
<g id="edge19" class="edge">
<title>Size4&#45;&gt;Start</title>
<path fill="none" stroke="#ff0000" d="M589.1061,-296.7731C583.8566,-314.2016 577,-341.63 577,-366 577,-540 577,-540 577,-540 577,-566.7591 566.7081,-575.3537 545,-591 528.4307,-602.9425 477.9682,-613.5805 440.5496,-620.1399"/>
<polygon fill="#ff0000" stroke="#ff0000" points="439.6472,-616.7434 430.3806,-621.8795 440.8276,-623.6431 439.6472,-616.7434"/>
<text text-anchor="middle" x="588" y="-449.3" font-family="Times,serif" font-size="14.00" fill="#000000">&#39;\n&#39;</text>
</g>
<!-- Size5 -->
<g id="node17" class="node">
<title>Size5</title>
<ellipse fill="none" stroke="#000000" cx="568" cy="-192" rx="36.2938" ry="18"/>
<text text-anchor="middle" x="568" y="-188.3" font-family="Times,serif" font-size="14.00" fill="#000000">Size5</text>
</g>
<!-- Size4&#45;&gt;Size5 -->
<g id="edge20" class="edge">
<title>Size4&#45;&gt;Size5</title>
<path fill="none" stroke="#000000" d="M589.4056,-260.9735C585.713,-249.0751 580.802,-233.2508 576.6154,-219.7606"/>
<polygon fill="#000000" stroke="#000000" points="579.894,-218.5166 573.5873,-210.0034 573.2086,-220.5914 579.894,-218.5166"/>
<text text-anchor="middle" x="592.5" y="-231.8" font-family="Times,serif" font-size="14.00" fill="#000000">&#39;\r&#39;</text>
</g>
<!-- Size5&#45;&gt;Start -->
<g id="edge21" class="edge">
<title>Size5&#45;&gt;Start</title>
<path fill="none" stroke="#ff0000" d="M555.8848,-209.0859C545.0941,-226.0049 531,-253.0669 531,-279 531,-540 531,-540 531,-540 531,-565.0511 525.7736,-574.4136 507,-591 488.5872,-607.2675 462.6691,-616.2081 440.6156,-621.1096"/>
<polygon fill="#ff0000" stroke="#ff0000" points="439.9068,-617.682 430.7958,-623.0893 441.2903,-624.544 439.9068,-617.682"/>
<text text-anchor="middle" x="542" y="-405.8" font-family="Times,serif" font-size="14.00" fill="#000000">&#39;\n&#39;</text>
</g>
<!-- Px4&#45;&gt;Px4 -->
<g id="edge24" class="edge">
<title>Px4&#45;&gt;Px4</title>
<path fill="none" stroke="#ff0000" d="M145.876,-286.7808C157.0394,-287.4178 166.5975,-284.8242 166.5975,-279 166.5975,-275.0869 162.2828,-272.6321 156.0655,-271.6356"/>
<polygon fill="#ff0000" stroke="#ff0000" points="156.0106,-268.1305 145.876,-271.2192 155.7247,-275.1247 156.0106,-268.1305"/>
<text text-anchor="middle" x="188.0975" y="-275.3" font-family="Times,serif" font-size="14.00" fill="#000000">&#39;0&#39;..&#39;9&#39;</text>
</g>
<!-- Px5 -->
<g id="node19" class="node">
<title>Px5</title>
<ellipse fill="none" stroke="#000000" cx="57" cy="-192" rx="28.6953" ry="18"/>
<text text-anchor="middle" x="57" y="-188.3" font-family="Times,serif" font-size="14.00" fill="#000000">Px5</text>
</g>
<!-- Px4&#45;&gt;Px5 -->
<g id="edge25" class="edge">
<title>Px4&#45;&gt;Px5</title>
<path fill="none" stroke="#000000" d="M107.853,-262.2255C98.4676,-249.2647 85.3399,-231.136 74.7737,-216.5446"/>
<polygon fill="#000000" stroke="#000000" points="77.596,-214.4746 68.8961,-208.4279 71.9264,-218.5802 77.596,-214.4746"/>
<text text-anchor="middle" x="99.5" y="-231.8" font-family="Times,serif" font-size="14.00" fill="#000000">&#39; &#39;</text>
</g>
<!-- Px5&#45;&gt;Start -->
<g id="edge27" class="edge">
<title>Px5&#45;&gt;Start</title>
<path fill="none" stroke="#ff0000" d="M58.6372,-209.978C60.0954,-227.5585 62,-255.096 62,-279 62,-540 62,-540 62,-540 62,-599.3056 261.1712,-618.8793 352.3658,-624.7333"/>
<polygon fill="#ff0000" stroke="#ff0000" points="352.215,-628.2305 362.4109,-625.3505 352.6444,-621.2437 352.215,-628.2305"/>
<text text-anchor="middle" x="73" y="-405.8" font-family="Times,serif" font-size="14.00" fill="#000000">&#39;\n&#39;</text>
</g>
<!-- Px5&#45;&gt;Px6 -->
<g id="edge28" class="edge">
<title>Px5&#45;&gt;Px6</title>
<path fill="none" stroke="#000000" d="M85.3011,-188.7596C124.8921,-183.8268 198.827,-173.1534 260,-156 294.3817,-146.3591 332.2527,-131.0798 358.3945,-119.7561"/>
<polygon fill="#000000" stroke="#000000" points="360.0541,-122.8502 367.8076,-115.6298 357.2437,-116.4391 360.0541,-122.8502"/>
<text text-anchor="middle" x="314.5" y="-144.8" font-family="Times,serif" font-size="14.00" fill="#000000">&#39;\r&#39;</text>
</g>
<!-- Px5&#45;&gt;Px7 -->
<g id="edge29" class="edge">
<title>Px5&#45;&gt;Px7</title>
<path fill="none" stroke="#ff0000" d="M57,-173.9735C57,-162.1918 57,-146.5607 57,-133.1581"/>
<polygon fill="#ff0000" stroke="#ff0000" points="60.5001,-133.0033 57,-123.0034 53.5001,-133.0034 60.5001,-133.0033"/>
<text text-anchor="middle" x="156.5" y="-144.8" font-family="Times,serif" font-size="14.00" fill="#000000">&#39;0&#39;..&#39;9&#39;|&#39;a&#39;..&#39;f&#39;|&#39;A&#39;..&#39;F&#39; overflow</text>
</g>
<!-- Px5&#45;&gt;Px5 -->
<g id="edge26" class="edge">
<title>Px5&#45;&gt;Px5</title>
<path fill="none" stroke="#ff0000" d="M82.876,-199.7808C94.0394,-200.4178 103.5975,-197.8242 103.5975,-192 103.5975,-188.0869 99.2828,-185.6321 93.0655,-184.6356"/>
<polygon fill="#ff0000" stroke="#ff0000" points="93.0106,-181.1305 82.876,-184.2192 92.7247,-188.1247 93.0106,-181.1305"/>
<text text-anchor="middle" x="214.0975" y="-188.3" font-family="Times,serif" font-size="14.00" fill="#000000">&#39;0&#39;..&#39;9&#39;|&#39;a&#39;..&#39;f&#39;|&#39;A&#39;..&#39;F&#39; no overflow</text>
</g>
</g>
</svg>
